<svg width="200" height="200" viewBox="0 0 200 200" fill="none" xmlns="http://www.w3.org/2000/svg">
<circle cx="100" cy="100" r="100" fill="#0E5467"/>
<path d="M150 100C150 109.889 147.068 119.556 141.573 127.779C136.079 136.001 128.27 142.41 119.134 146.194C109.998 149.978 99.9445 150.969 90.2455 149.039C80.5464 147.11 71.6373 142.348 64.6447 135.355C57.652 128.363 52.89 119.454 50.9607 109.755C49.0315 100.055 50.0216 90.0021 53.806 80.8658C57.5904 71.7295 63.999 63.9206 72.2215 58.4265C80.4439 52.9324 90.1109 50 100 50L100 100H150Z" fill="#01DA93"/>
<path d="M128.79 30.4939C137.918 34.2747 146.212 39.8163 153.198 46.8023C160.184 53.7883 165.725 62.0819 169.506 71.2096L100 100L128.79 30.4939Z" fill="white"/>
</svg>
